<svg width="60" height="60" viewBox="0 0 60 60" fill="none" xmlns="http://www.w3.org/2000/svg">
<path d="M32.8135 58.3785H30.4541C30.239 58.3785 30.0328 58.293 29.8807 58.141C29.7287 57.9889 29.6432 57.7827 29.6432 57.5676C29.6432 57.3526 29.7287 57.1464 29.8807 56.9943C30.0328 56.8423 30.239 56.7568 30.4541 56.7568H32.8135C33.0286 56.7568 33.2348 56.8423 33.3868 56.9943C33.5389 57.1464 33.6243 57.3526 33.6243 57.5676C33.6243 57.7827 33.5389 57.9889 33.3868 58.141C33.2348 58.293 33.0286 58.3785 32.8135 58.3785Z" fill="#00C9EA"/>
<path d="M55.946 58.3783H46.573C46.358 58.3783 46.1517 58.2929 45.9997 58.1409C45.8476 57.9888 45.7622 57.7826 45.7622 57.5675C45.7622 57.3525 45.8476 57.1463 45.9997 56.9942C46.1517 56.8421 46.358 56.7567 46.573 56.7567H55.946C56.161 56.7567 56.3672 56.6713 56.5193 56.5192C56.6714 56.3672 56.7568 56.1609 56.7568 55.9459V20.627H3.24326V55.9459C3.24326 56.1609 3.32869 56.3672 3.48075 56.5192C3.6328 56.6713 3.83904 56.7567 4.05408 56.7567H24.7784C24.9934 56.7567 25.1997 56.8421 25.3517 56.9942C25.5038 57.1463 25.5892 57.3525 25.5892 57.5675C25.5892 57.7826 25.5038 57.9888 25.3517 58.1409C25.1997 58.2929 24.9934 58.3783 24.7784 58.3783H4.05408C3.40895 58.3783 2.79026 58.1221 2.33409 57.6659C1.87792 57.2097 1.62164 56.591 1.62164 55.9459V19.8162C1.62164 19.6011 1.70707 19.3949 1.85912 19.2429C2.01118 19.0908 2.21741 19.0054 2.43245 19.0054H57.5676C57.7826 19.0054 57.9889 19.0908 58.1409 19.2429C58.293 19.3949 58.3784 19.6011 58.3784 19.8162V55.9459C58.3784 56.591 58.1221 57.2097 57.666 57.6659C57.2098 58.1221 56.5911 58.3783 55.946 58.3783Z" fill="#00C9EA"/>
<path d="M40.8973 58.3785H38.4892C38.2741 58.3785 38.0679 58.293 37.9158 58.141C37.7638 57.9889 37.6783 57.7827 37.6783 57.5676C37.6783 57.3526 37.7638 57.1464 37.9158 56.9943C38.0679 56.8423 38.2741 56.7568 38.4892 56.7568H40.8973C41.1123 56.7568 41.3185 56.8423 41.4706 56.9943C41.6226 57.1464 41.7081 57.3526 41.7081 57.5676C41.7081 57.7827 41.6226 57.9889 41.4706 58.141C41.3185 58.293 41.1123 58.3785 40.8973 58.3785Z" fill="#00C9EA"/>
<path d="M57.5676 20.6272H2.43245C2.21741 20.6272 2.01118 20.5418 1.85912 20.3897C1.70707 20.2377 1.62164 20.0315 1.62164 19.8164V9.32452C1.62164 8.6794 1.87792 8.0607 2.33409 7.60453C2.79026 7.14836 3.40895 6.89209 4.05408 6.89209H12.1622C12.3772 6.89209 12.5835 6.97751 12.7355 7.12957C12.8876 7.28163 12.973 7.48786 12.973 7.7029C12.973 7.91794 12.8876 8.12417 12.7355 8.27623C12.5835 8.42829 12.3772 8.51371 12.1622 8.51371H4.05408C3.83904 8.51371 3.6328 8.59914 3.48075 8.75119C3.32869 8.90325 3.24326 9.10948 3.24326 9.32452V19.0056H56.7568V9.32452C56.7568 9.10948 56.6714 8.90325 56.5193 8.75119C56.3672 8.59914 56.161 8.51371 55.946 8.51371H47.8379C47.6228 8.51371 47.4166 8.42829 47.2645 8.27623C47.1125 8.12417 47.027 7.91794 47.027 7.7029C47.027 7.48786 47.1125 7.28163 47.2645 7.12957C47.4166 6.97751 47.6228 6.89209 47.8379 6.89209H55.946C56.5911 6.89209 57.2098 7.14836 57.666 7.60453C58.1221 8.0607 58.3784 8.6794 58.3784 9.32452V19.8164C58.3784 20.0315 58.293 20.2377 58.1409 20.3897C57.9889 20.5418 57.7826 20.6272 57.5676 20.6272Z" fill="#00C9EA"/>
<path d="M42.1622 8.51371H17.8378C17.6228 8.51371 17.4166 8.42829 17.2645 8.27623C17.1125 8.12417 17.027 7.91794 17.027 7.7029C17.027 7.48786 17.1125 7.28163 17.2645 7.12957C17.4166 6.97751 17.6228 6.89209 17.8378 6.89209H42.1622C42.3772 6.89209 42.5835 6.97751 42.7355 7.12957C42.8876 7.28163 42.973 7.48786 42.973 7.7029C42.973 7.91794 42.8876 8.12417 42.7355 8.27623C42.5835 8.42829 42.3772 8.51371 42.1622 8.51371Z" fill="#00C9EA"/>
<path d="M47.1033 13.7837H42.8968C42.487 13.7833 42.0942 13.6204 41.8045 13.3306C41.5148 13.0409 41.3518 12.6481 41.3514 12.2383V3.16699C41.3518 2.75725 41.5148 2.36442 41.8045 2.07469C42.0942 1.78497 42.487 1.62201 42.8968 1.62158H47.1033C47.513 1.62201 47.9058 1.78497 48.1956 2.07469C48.4853 2.36442 48.6483 2.75725 48.6487 3.16699V12.2383C48.6483 12.6481 48.4853 13.0409 48.1956 13.3306C47.9058 13.6204 47.513 13.7833 47.1033 13.7837ZM42.973 12.1621H47.0271V3.2432H42.973V12.1621Z" fill="#00C9EA"/>
<path d="M17.1032 13.7837H12.8967C12.487 13.7833 12.0942 13.6204 11.8044 13.3306C11.5147 13.0409 11.3517 12.6481 11.3513 12.2383V3.16699C11.3517 2.75725 11.5147 2.36442 11.8044 2.07469C12.0942 1.78497 12.487 1.62201 12.8967 1.62158H17.1032C17.513 1.62201 17.9058 1.78497 18.1955 2.07469C18.4852 2.36442 18.6482 2.75725 18.6486 3.16699V12.2383C18.6482 12.6481 18.4852 13.0409 18.1955 13.3306C17.9058 13.6204 17.513 13.7833 17.1032 13.7837ZM12.9729 12.1621H17.027V3.2432H12.9729V12.1621Z" fill="#00C9EA"/>
<path d="M49.8648 31.6043H45.3924C44.9623 31.6043 44.5498 31.4335 44.2457 31.1294C43.9416 30.8253 43.7708 30.4128 43.7708 29.9827V25.5103C43.7708 25.0802 43.9416 24.6677 44.2457 24.3636C44.5498 24.0595 44.9623 23.8887 45.3924 23.8887H49.8648C50.2949 23.8887 50.7073 24.0595 51.0115 24.3636C51.3156 24.6677 51.4864 25.0802 51.4864 25.5103V29.9827C51.4864 30.4128 51.3156 30.8253 51.0115 31.1294C50.7073 31.4335 50.2949 31.6043 49.8648 31.6043ZM45.3924 25.5103V29.9827H49.8648V25.5103H45.3924Z" fill="#00C9EA"/>
<path d="M38.1122 31.6043H33.6397C33.2097 31.6043 32.7972 31.4335 32.4931 31.1294C32.189 30.8253 32.0181 30.4128 32.0181 29.9827V25.5103C32.0181 25.0802 32.189 24.6677 32.4931 24.3636C32.7972 24.0595 33.2097 23.8887 33.6397 23.8887H38.1122C38.5423 23.8887 38.9547 24.0595 39.2588 24.3636C39.563 24.6677 39.7338 25.0802 39.7338 25.5103V29.9827C39.7338 30.4128 39.563 30.8253 39.2588 31.1294C38.9547 31.4335 38.5423 31.6043 38.1122 31.6043ZM33.6397 25.5103V29.9827H38.1122V25.5103H33.6397Z" fill="#00C9EA"/>
<path d="M26.3603 31.6043H21.8919C21.4618 31.6043 21.0493 31.4335 20.7452 31.1294C20.4411 30.8253 20.2703 30.4128 20.2703 29.9827V25.5103C20.2703 25.0802 20.4411 24.6677 20.7452 24.3636C21.0493 24.0595 21.4618 23.8887 21.8919 23.8887H26.3643C26.7944 23.8887 27.2069 24.0595 27.511 24.3636C27.8151 24.6677 27.9859 25.0802 27.9859 25.5103V29.9827C27.9859 30.196 27.9439 30.4072 27.8621 30.6042C27.7804 30.8012 27.6606 30.9802 27.5095 31.1308C27.3585 31.2815 27.1793 31.4008 26.9821 31.4821C26.7849 31.5633 26.5736 31.6049 26.3603 31.6043ZM21.8919 25.5103V29.9827H26.3643V25.5103H21.8919Z" fill="#00C9EA"/>
<path d="M49.8648 42.5501H45.3924C44.9623 42.5501 44.5498 42.3793 44.2457 42.0752C43.9416 41.7711 43.7708 41.3586 43.7708 40.9285V36.4561C43.7708 36.026 43.9416 35.6135 44.2457 35.3094C44.5498 35.0053 44.9623 34.8345 45.3924 34.8345H49.8648C50.2949 34.8345 50.7073 35.0053 51.0115 35.3094C51.3156 35.6135 51.4864 36.026 51.4864 36.4561V40.9285C51.4864 41.3586 51.3156 41.7711 51.0115 42.0752C50.7073 42.3793 50.2949 42.5501 49.8648 42.5501ZM45.3924 36.4561V40.9285H49.8648V36.4561H45.3924Z" fill="#00C9EA"/>
<path d="M38.1122 42.5501H33.6397C33.2097 42.5501 32.7972 42.3793 32.4931 42.0752C32.189 41.7711 32.0181 41.3586 32.0181 40.9285V36.4561C32.0181 36.026 32.189 35.6135 32.4931 35.3094C32.7972 35.0053 33.2097 34.8345 33.6397 34.8345H38.1122C38.5423 34.8345 38.9547 35.0053 39.2588 35.3094C39.563 35.6135 39.7338 36.026 39.7338 36.4561V40.9285C39.7338 41.3586 39.563 41.7711 39.2588 42.0752C38.9547 42.3793 38.5423 42.5501 38.1122 42.5501ZM33.6397 36.4561V40.9285H38.1122V36.4561H33.6397Z" fill="#00C9EA"/>
<path d="M26.3603 42.5502H21.8919C21.4618 42.5502 21.0493 42.3793 20.7452 42.0752C20.4411 41.7711 20.2703 41.3586 20.2703 40.9285V36.4561C20.2703 36.026 20.4411 35.6135 20.7452 35.3094C21.0493 35.0053 21.4618 34.8345 21.8919 34.8345H26.3643C26.7944 34.8345 27.2069 35.0053 27.511 35.3094C27.8151 35.6135 27.9859 36.026 27.9859 36.4561V40.9285C27.9859 41.1418 27.9439 41.353 27.8621 41.55C27.7804 41.7471 27.6606 41.926 27.5095 42.0766C27.3585 42.2273 27.1793 42.3466 26.9821 42.4279C26.7849 42.5091 26.5736 42.5507 26.3603 42.5502ZM21.8919 36.4561V40.9285H26.3643V36.4561H21.8919Z" fill="#00C9EA"/>
<path d="M14.6076 42.5501H10.1352C9.70509 42.5501 9.29263 42.3793 8.98851 42.0752C8.6844 41.7711 8.51355 41.3586 8.51355 40.9285V36.4561C8.51355 36.026 8.6844 35.6135 8.98851 35.3094C9.29263 35.0053 9.70509 34.8345 10.1352 34.8345H14.6076C15.0377 34.8345 15.4502 35.0053 15.7543 35.3094C16.0584 35.6135 16.2292 36.026 16.2292 36.4561V40.9285C16.2292 41.3586 16.0584 41.7711 15.7543 42.0752C15.4502 42.3793 15.0377 42.5501 14.6076 42.5501ZM10.1352 36.4561V40.9285H14.6076V36.4561H10.1352Z" fill="#00C9EA"/>
<path d="M38.1122 53.4964H33.6397C33.2097 53.4964 32.7972 53.3256 32.4931 53.0215C32.189 52.7174 32.0181 52.3049 32.0181 51.8748V47.4024C32.0181 46.9723 32.189 46.5598 32.4931 46.2557C32.7972 45.9516 33.2097 45.7808 33.6397 45.7808H38.1122C38.5423 45.7808 38.9547 45.9516 39.2588 46.2557C39.563 46.5598 39.7338 46.9723 39.7338 47.4024V51.8748C39.7338 52.3049 39.563 52.7174 39.2588 53.0215C38.9547 53.3256 38.5423 53.4964 38.1122 53.4964ZM33.6397 47.4024V51.8748H38.1122V47.4024H33.6397Z" fill="#00C9EA"/>
<path d="M26.3603 53.4964H21.8919C21.4618 53.4964 21.0493 53.3256 20.7452 53.0215C20.4411 52.7174 20.2703 52.3049 20.2703 51.8748V47.4024C20.2703 46.9723 20.4411 46.5598 20.7452 46.2557C21.0493 45.9516 21.4618 45.7808 21.8919 45.7808H26.3643C26.7944 45.7808 27.2069 45.9516 27.511 46.2557C27.8151 46.5598 27.9859 46.9723 27.9859 47.4024V51.8748C27.9859 52.0881 27.9439 52.2993 27.8621 52.4963C27.7804 52.6933 27.6606 52.8723 27.5095 53.0229C27.3585 53.1735 27.1793 53.2929 26.9821 53.3742C26.7849 53.4554 26.5736 53.497 26.3603 53.4964ZM21.8919 47.4024V51.8748H26.3643V47.4024H21.8919Z" fill="#00C9EA"/>
<path d="M14.6076 53.4964H10.1352C9.70509 53.4964 9.29263 53.3256 8.98851 53.0215C8.6844 52.7174 8.51355 52.3049 8.51355 51.8748V47.4024C8.51355 46.9723 8.6844 46.5598 8.98851 46.2557C9.29263 45.9516 9.70509 45.7808 10.1352 45.7808H14.6076C15.0377 45.7808 15.4502 45.9516 15.7543 46.2557C16.0584 46.5598 16.2292 46.9723 16.2292 47.4024V51.8748C16.2292 52.3049 16.0584 52.7174 15.7543 53.0215C15.4502 53.3256 15.0377 53.4964 14.6076 53.4964ZM10.1352 47.4024V51.8748H14.6076V47.4024H10.1352Z" fill="#00C9EA"/>
</svg>
