<svg width="60" height="60" viewBox="0 0 60 60" fill="none" xmlns="http://www.w3.org/2000/svg">
<path d="M21.7416 7.71599C21.4615 7.99751 21.2129 8.30924 21.0005 8.64478C20.7872 8.31016 20.5386 7.9998 20.2585 7.71873C17.9752 5.61855 14.5365 5.39471 12.0006 7.18179C9.46505 5.39471 6.02684 5.61717 3.74263 7.71599C2.06862 9.38863 1.56554 12.1828 2.40095 15.1939C2.50074 15.5427 2.60785 15.8805 2.72595 16.1936C3.00747 16.9013 3.34988 17.5834 3.74858 18.2325C3.93489 18.5538 4.12165 18.8756 4.28873 19.2025C4.37983 19.3856 4.47184 19.5678 4.55378 19.7596C4.68195 20.0585 4.94699 20.2759 5.26467 20.3437C7.48204 20.7863 9.73924 21.0005 12.0006 20.9827C14.2623 20.9996 16.5195 20.7845 18.7374 20.3405C19.055 20.2732 19.3201 20.0557 19.4483 19.7577C19.5316 19.5655 19.6227 19.3828 19.7133 19.1997C19.8644 18.8994 20.0383 18.6046 20.2077 18.3185L20.2795 18.1959C20.5295 17.7546 20.7794 17.2959 21.0005 16.8075C21.2266 17.2909 21.4715 17.7569 21.7283 18.2078L21.7856 18.3076C21.9563 18.5969 22.1325 18.8949 22.2854 19.2006C22.3765 19.3837 22.4685 19.5655 22.5505 19.7577C22.6786 20.0562 22.9437 20.2741 23.2614 20.3418C25.4797 20.7854 27.7382 21.0001 30.0005 20.9827C32.2618 20.9996 34.5194 20.7845 36.7373 20.3405C37.0549 20.2732 37.32 20.0557 37.4482 19.7577C37.531 19.5655 37.6221 19.3828 37.7132 19.1997C37.8643 18.8994 38.0382 18.6046 38.2071 18.3185L38.279 18.1959C38.5294 17.7546 38.7793 17.2959 39 16.8075C39.2261 17.2909 39.471 17.7569 39.7282 18.2078L39.785 18.3076C39.9562 18.5969 40.132 18.8949 40.2853 19.2006C40.376 19.3837 40.468 19.5655 40.5504 19.7577C40.6781 20.0562 40.9431 20.2741 41.2613 20.3418C43.4796 20.7854 45.7377 21.0001 47.9999 20.9827C50.2617 20.9996 52.5193 20.7845 54.7367 20.3405C55.0544 20.2732 55.3194 20.0557 55.4481 19.7577C55.5309 19.5655 55.622 19.3828 55.7099 19.2066C55.8797 18.8729 56.0669 18.5506 56.2528 18.2297C56.6515 17.5829 56.993 16.9027 57.274 16.1968C57.394 15.8805 57.5029 15.5427 57.6018 15.1966V15.1907C58.4308 12.1846 57.9277 9.39092 56.256 7.71965C53.9736 5.61992 50.5359 5.39608 47.9999 7.18179C45.4648 5.39471 42.0262 5.61717 39.742 7.71599C39.4618 7.99751 39.2128 8.30878 39 8.64478C38.7871 8.31016 38.5381 7.9998 38.2584 7.71873C35.9751 5.61855 32.536 5.39471 30.0005 7.18179C27.4645 5.39425 24.0258 5.61672 21.7416 7.71599ZM19.6694 14.6775C19.6474 14.7636 19.6185 14.8506 19.5897 14.9298C19.5773 14.9623 19.5668 14.9957 19.5586 15.0296C19.5169 15.1852 19.4652 15.3381 19.4034 15.4869C19.1626 16.0774 18.8761 16.6482 18.5465 17.1948L18.4833 17.3028C18.2924 17.6278 18.0956 17.9615 17.9244 18.3025L17.8365 18.4797C13.9726 19.1356 10.0258 19.1356 6.16187 18.4797L6.06987 18.2957C5.88264 17.9295 5.67986 17.5779 5.4757 17.2259C5.13375 16.6715 4.8385 16.0902 4.5936 15.4869C4.49381 15.2227 4.40363 14.9408 4.32261 14.6547C4.08457 13.7918 3.44051 10.8429 5.15756 9.12679C6.92267 7.57042 9.57811 7.59972 11.3084 9.19363C11.3176 9.20278 11.3304 9.20461 11.3396 9.21377C11.3487 9.22292 11.3565 9.23894 11.3698 9.24993C12.4794 10.143 13.3404 11.3071 13.8696 12.6295C14.0188 13.1615 14.5709 13.4718 15.1028 13.3226C15.6342 13.1738 15.9446 12.6218 15.7954 12.0899C15.3399 10.7592 14.5773 9.55434 13.5684 8.57382C15.2648 7.60933 17.3865 7.8318 18.8454 9.12771C19.6428 10.0194 20.0575 11.1881 20.0003 12.3828C19.9953 13.1592 19.884 13.9314 19.6694 14.6775ZM41.1574 9.12862C42.922 7.57271 45.5775 7.60155 47.3082 9.19591C47.3169 9.20461 47.3302 9.2069 47.3389 9.2156C47.3481 9.22475 47.3558 9.24078 47.3691 9.25176C48.4792 10.1448 49.3402 11.3089 49.8689 12.6318C49.9655 12.9756 50.2383 13.242 50.5844 13.3308C50.9305 13.4192 51.2976 13.3162 51.5475 13.0608C51.797 12.8053 51.8913 12.4359 51.7952 12.0917C51.3397 10.761 50.5766 9.55617 49.5682 8.57565C51.2642 7.61116 53.3863 7.83409 54.8447 9.13C56.559 10.8438 55.9177 13.7886 55.6788 14.6537C55.5968 14.9449 55.5071 15.2259 55.405 15.4946C55.161 16.0961 54.8667 16.6761 54.5248 17.2277C54.3247 17.5797 54.1178 17.9276 53.9251 18.3048L53.8368 18.4815C49.9728 19.1375 46.0261 19.1375 42.1621 18.4815C42.1319 18.4225 42.1031 18.3639 42.0742 18.3057C41.9003 17.9587 41.7021 17.6195 41.5071 17.2895L41.4563 17.2025C41.1239 16.6523 40.8351 16.0769 40.592 15.4818C40.5316 15.334 40.4803 15.1829 40.4391 15.0286C40.4314 14.9957 40.4204 14.9627 40.4089 14.9289C40.3801 14.8497 40.3512 14.7627 40.321 14.6487C40.1118 13.9113 40.0038 13.1491 40.0001 12.3828C39.9438 11.1885 40.3595 10.0199 41.1574 9.12862ZM29.3083 9.19591C29.3175 9.20461 29.3303 9.2069 29.3395 9.2156C29.3482 9.22475 29.3564 9.24078 29.3692 9.25176C30.4793 10.1448 31.3403 11.3089 31.8695 12.6318C32.0183 13.1637 32.5703 13.4736 33.1022 13.3249C33.6341 13.1756 33.9445 12.6236 33.7953 12.0917C33.3398 10.761 32.5767 9.55617 31.5683 8.57565C33.2643 7.61116 35.3864 7.83409 36.8453 9.13C37.6418 10.0208 38.0565 11.189 38.0002 12.3828C37.9961 13.161 37.8849 13.9346 37.6702 14.6826C37.6482 14.7686 37.6194 14.8556 37.5901 14.9348C37.5782 14.9673 37.5676 15.0007 37.5594 15.0346C37.5177 15.1902 37.466 15.3431 37.4042 15.4919C37.163 16.0824 36.8764 16.6532 36.5473 17.1998L36.4841 17.3078C36.2932 17.6328 36.0964 17.9665 35.9252 18.3076L35.8373 18.4847C31.9734 19.1407 28.0262 19.1407 24.1622 18.4847C24.1325 18.4257 24.1032 18.3666 24.0743 18.3085C23.9004 17.9615 23.7022 17.6228 23.5076 17.2927L23.4564 17.2057C23.1245 16.6551 22.8357 16.0797 22.5926 15.4846C22.5317 15.3372 22.4809 15.1857 22.4392 15.0319C22.4315 14.9989 22.4205 14.9659 22.4095 14.9316C22.3806 14.8529 22.3513 14.7659 22.3216 14.6519C22.1119 13.9136 22.0039 13.15 22.0002 12.3828C21.9444 11.1881 22.3605 10.0194 23.1584 9.12862C24.923 7.57317 27.578 7.60201 29.3083 9.19591Z" fill="#00C9EA"/>
<path d="M30.0005 22.9827C29.4479 22.9827 29.0003 23.4304 29.0003 23.9824V31.5683L27.7075 30.2756C27.4562 30.0156 27.0845 29.9113 26.7348 30.0028C26.3851 30.0944 26.1123 30.3672 26.0207 30.7169C25.9292 31.0666 26.0335 31.4383 26.2935 31.6896L29.2932 34.6893C29.4809 34.877 29.735 34.9823 30.0005 34.9823C30.1305 34.9818 30.2595 34.9566 30.3804 34.9077C30.4889 34.8582 30.5882 34.7909 30.6734 34.7076C30.6825 34.6985 30.6953 34.6953 30.7045 34.6866L33.7042 31.6864C33.9642 31.4356 34.0685 31.0634 33.977 30.7142C33.8854 30.3644 33.6126 30.0912 33.2629 29.9996C32.9132 29.9085 32.5415 30.0124 32.2901 30.2724L31.0002 31.5683V23.9824C31.0002 23.4304 30.5525 22.9827 30.0005 22.9827Z" fill="#00C9EA"/>
<path d="M12.0005 22.9827C11.4485 22.9827 11.0008 23.4304 11.0008 23.9824V31.5683L9.70761 30.2756C9.4563 30.0156 9.0846 29.9113 8.73488 30.0028C8.38561 30.0944 8.11233 30.3672 8.02078 30.7169C7.92923 31.0666 8.0336 31.4383 8.2936 31.6896L11.2937 34.6893C11.481 34.877 11.7355 34.9823 12.0005 34.9823C12.131 34.9818 12.2596 34.9566 12.3804 34.9077C12.4894 34.8582 12.5883 34.7909 12.6734 34.7076C12.6826 34.6985 12.6954 34.6953 12.7045 34.6866L15.7047 31.6864C15.9642 31.4356 16.0686 31.0634 15.977 30.7142C15.8855 30.3644 15.6127 30.0912 15.2629 29.9996C14.9132 29.9085 14.5415 30.0124 14.2907 30.2724L13.0007 31.5683V23.9824C13.0007 23.4304 12.553 22.9827 12.0005 22.9827Z" fill="#00C9EA"/>
<path d="M47.9998 22.9827C47.4478 22.9827 47.0001 23.4304 47.0001 23.9824V31.5683L45.7069 30.2756C45.4561 30.0156 45.0839 29.9113 44.7347 30.0028C44.3849 30.0944 44.1117 30.3672 44.0201 30.7169C43.929 31.0666 44.0329 31.4383 44.2929 31.6896L47.2931 34.6893C47.4803 34.877 47.7348 34.9823 47.9998 34.9823C48.1303 34.9818 48.2594 34.9566 48.3798 34.9077C48.4887 34.8582 48.5876 34.7909 48.6727 34.7076C48.6819 34.6985 48.6952 34.6953 48.7039 34.6866L51.704 31.6864C51.964 31.4356 52.0679 31.0634 51.9768 30.7142C51.8853 30.3644 51.612 30.0912 51.2623 29.9996C50.913 29.9085 50.5409 30.0124 50.29 30.2724L49 31.5683V23.9824C49 23.4304 48.5524 22.9827 47.9998 22.9827Z" fill="#00C9EA"/>
<path d="M0.0220223 46.1913C0.0769531 46.4508 0.23259 46.6778 0.45506 46.8225C0.67753 46.9671 0.948064 47.017 1.20761 46.9621L5.09168 46.1441C5.1077 46.2759 5.12372 46.4082 5.14386 46.53C5.28988 47.4112 5.39883 48.3011 5.50778 49.1923C5.56957 49.6922 5.63183 50.198 5.70095 50.707C6.09279 53.4732 7.54479 53.9218 8.37562 53.9438H8.45481C10.7006 53.9438 10.9908 51.5443 11.1309 50.3852C11.1528 50.2021 11.1734 50.0272 11.2055 49.819L11.2206 49.7123C11.3735 48.9579 11.4705 48.204 11.5648 47.4762L11.6115 47.1141C11.7058 46.4142 11.8765 46.199 12.0006 46.1313C12.1246 46.199 12.2958 46.411 12.3888 47.1141L12.4368 47.4762C12.5307 48.204 12.6277 48.9579 12.7747 49.6821L12.8026 49.8689C12.8278 50.0272 12.8488 50.2021 12.8708 50.3852C13.0127 51.5589 13.2997 54.0212 15.6256 53.9429C16.4564 53.9218 17.9084 53.4732 18.3016 50.6979C18.3694 50.198 18.4316 49.6922 18.4934 49.1891C18.6024 48.2983 18.7113 47.408 18.8564 46.53C18.8784 46.4 18.8953 46.2604 18.9127 46.118L23.5722 46.9713C25.6962 47.3105 27.8435 47.4812 29.9945 47.4812C32.1565 47.4808 34.3153 47.3091 36.4503 46.9671L41.0883 46.118C41.1043 46.259 41.1212 46.3982 41.1432 46.5272C41.2892 47.408 41.3982 48.2983 41.5071 49.1891C41.5694 49.689 41.6312 50.1952 41.7003 50.7043C42.0921 53.4732 43.5441 53.9218 44.375 53.9429H44.4542C46.6999 53.9429 46.9901 51.5429 47.1302 50.3843C47.1522 50.2012 47.1732 50.0259 47.2053 49.8181L47.2199 49.7109C47.3733 48.957 47.4699 48.2031 47.5642 47.4753L47.6108 47.1132C47.7051 46.4133 47.8759 46.1981 47.9999 46.1304C48.124 46.1981 48.3002 46.4101 48.3881 47.1132L48.4362 47.4753C48.53 48.2031 48.6271 48.957 48.774 49.6812L48.8019 49.868C48.8271 50.0259 48.8482 50.2012 48.8701 50.3843C49.012 51.558 49.3311 54.0198 51.6249 53.942C52.4562 53.9209 53.9082 53.4719 54.301 50.6969C54.3692 50.1971 54.431 49.6913 54.4928 49.1882C54.6022 48.2969 54.7111 47.4071 54.8558 46.5291C54.8768 46.4073 54.8928 46.2732 54.9089 46.14L58.7929 46.9612C59.1427 47.0349 59.5047 46.9168 59.7437 46.6513C59.9826 46.3853 60.0614 46.0123 59.9506 45.6726C59.8403 45.333 59.5565 45.078 59.2067 45.0043L54.9931 44.113C54.9931 44.0663 55 44.0132 55 43.983C55 43.913 55 43.8343 54.9899 43.7583C54.9899 43.6333 54.9812 43.5033 54.9711 43.3582V43.2621C54.6072 39.6774 51.5814 36.9546 47.9784 36.9693C44.375 36.9839 41.3716 39.7314 41.037 43.3193C41.0274 43.463 41.0182 43.6081 41.0159 43.7601C41.0091 43.8361 41.0063 43.9153 41.0063 43.9853C41.0063 44.01 41.0063 44.0604 41.0123 44.1011L36.1184 45.0011C32.0773 45.6461 27.9594 45.6461 23.9183 45.0011L19.0024 44.1011C19.0024 44.0604 19.0084 44.01 19.0084 43.9853C19.0084 43.9153 19.0084 43.8361 18.9983 43.7601C18.9983 43.6351 18.9896 43.5051 18.9796 43.36V43.2644C18.6156 39.6792 15.5899 36.9565 11.9869 36.9711C8.3834 36.9858 5.38006 39.7337 5.0459 43.3211C5.03583 43.4653 5.02667 43.61 5.02484 43.7624C5.00058 43.8352 5.00058 43.9144 5.00058 43.9844C5.00058 44.0123 5.00058 44.0673 5.00791 44.114L0.7938 45.0052C0.534252 45.0601 0.306747 45.2158 0.162096 45.4382C0.016987 45.6607 -0.0333662 45.9317 0.0220223 46.1913ZM47.9999 38.9843C50.5574 38.9734 52.7071 40.901 52.9739 43.4443C52.9808 43.566 52.9899 43.6892 52.9899 43.8192V44.119C53.017 44.8116 52.9812 45.5046 52.8819 46.1903C52.7318 47.1004 52.6192 48.0172 52.507 48.935C52.4461 49.4349 52.3848 49.9252 52.3189 50.4131C52.269 50.767 52.0671 51.921 51.575 51.9343C51.2189 51.9439 51.0408 51.6852 50.8541 50.1339C50.8302 49.9261 50.8051 49.727 50.773 49.5201L50.7392 49.3031C50.6009 48.6192 50.508 47.9033 50.4178 47.2034L50.3702 46.8371C50.0951 44.7521 48.991 44.195 48.113 44.0943C48.0375 44.0851 47.9606 44.0851 47.885 44.0943C47.0071 44.1941 45.903 44.7521 45.6269 46.8371L45.5802 47.2034C45.4901 47.8973 45.3971 48.6151 45.2529 49.3292L45.2209 49.542C45.193 49.7233 45.1683 49.922 45.144 50.1302C44.9572 51.6788 44.7572 51.9132 44.4239 51.9301C43.9309 51.9169 43.724 50.7629 43.6801 50.415C43.6133 49.9211 43.5519 49.4262 43.491 48.9309C43.3793 48.0131 43.2663 47.0962 43.1152 46.183C43.0163 45.49 42.9806 44.7896 43.009 44.0902V43.8091C43.009 43.6873 43.0173 43.5701 43.026 43.4401C43.2965 40.8991 45.4447 38.9747 47.9999 38.9843ZM12.0006 38.9843C14.5576 38.9734 16.7077 40.901 16.9746 43.4443C16.9814 43.566 16.9906 43.6892 16.9906 43.8192V44.119C17.0176 44.8116 16.9814 45.5046 16.8826 46.1903C16.7324 47.1004 16.6194 48.0172 16.5077 48.935C16.4468 49.4349 16.3854 49.9252 16.3195 50.4131C16.2696 50.767 16.0678 51.921 15.5757 51.9343C15.2374 51.9439 15.0415 51.6852 14.8547 50.1339C14.8304 49.9261 14.8057 49.727 14.7737 49.5201L14.7398 49.3031C14.6016 48.6192 14.5086 47.9033 14.4185 47.2034L14.3704 46.8371C14.0957 44.7521 12.9916 44.195 12.1137 44.0943C12.0377 44.0851 11.9612 44.0851 11.8857 44.0943C11.0077 44.1941 9.90361 44.7521 9.62759 46.8371L9.58089 47.2034C9.49072 47.8973 9.39779 48.6151 9.2536 49.3292L9.22156 49.542C9.19363 49.7233 9.16846 49.922 9.14465 50.1302C8.95651 51.6788 8.75464 51.9132 8.4246 51.9301C7.9316 51.9169 7.72469 50.7629 7.68075 50.415C7.61391 49.9211 7.55257 49.4262 7.49169 48.9309C7.37954 48.0131 7.26648 47.0962 7.11587 46.183C7.01791 45.4945 6.98267 44.7988 7.01059 44.1043V43.8233C7.01059 43.7011 7.01883 43.5843 7.02753 43.4543C7.2912 40.9083 9.44082 38.9756 12.0006 38.9843Z" fill="#00C9EA"/>
</svg>
