<svg width="60" height="60" viewBox="0 0 60 60" fill="none" xmlns="http://www.w3.org/2000/svg">
<g clip-path="url(#clip0)">
<path d="M58.6939 0.589597C58.3364 0.209197 57.8576 0 57.3467 0H26.0706C25.5597 0 25.0814 0.209197 24.7234 0.589597C24.3462 0.990139 24.1494 1.54174 24.1837 2.10342L25.8614 29.7669C25.8898 30.2329 26.2766 30.5922 26.7375 30.5922C26.7554 30.5922 26.7737 30.5918 26.7916 30.5909C27.2763 30.5611 27.6453 30.1445 27.6155 29.6602L27.3033 24.5081C31.8333 23.6439 36.5112 21.3038 41.2211 17.5424C46.1645 13.5928 51.5276 12.2396 56.775 13.6029L54.5965 49.523C54.5058 51.0189 53.382 52.1908 52.038 52.1908H46.7692V46.4019C46.7692 43.3322 44.577 40.7065 41.5567 40.159C37.6341 39.4472 32.5685 38.6351 28.1374 38.2616L27.8481 33.488C27.8188 33.0037 27.4008 32.637 26.9174 32.6641C26.4331 32.6934 26.0642 33.1099 26.0935 33.5947L26.369 38.1348C25.465 38.0826 24.6007 38.0533 23.7946 38.0533C22.1389 38.0533 20.1078 38.1778 17.7576 38.4232C17.2747 38.4735 16.9245 38.9056 16.9749 39.3886C17.0252 39.8711 17.4569 40.2217 17.9403 40.1713C20.2295 39.9324 22.1993 39.8111 23.7946 39.8111C29.0122 39.8111 36.9658 41.1125 41.2431 41.8884C43.4266 42.2844 45.0114 44.1827 45.0114 46.4019V48.2577C44.3371 47.7816 43.5163 47.501 42.6301 47.501C41.2303 47.501 39.9911 48.2005 39.2418 49.2675C38.389 48.1923 37.0724 47.501 35.5971 47.501C34.0091 47.501 32.6047 48.3012 31.7651 49.5188C30.8748 48.2971 29.4333 47.501 27.8092 47.501C26.1489 47.501 24.6799 48.3332 23.795 49.6012C22.9097 48.3328 21.4408 47.501 19.7805 47.501C18.1563 47.501 16.7153 48.2971 15.8245 49.5188C14.9845 48.3012 13.5805 47.501 11.993 47.501C10.5172 47.501 9.20068 48.1923 8.34787 49.2675C7.59851 48.2005 6.35935 47.501 4.95952 47.501C4.07375 47.501 3.25252 47.7816 2.57824 48.2577V46.4019C2.57824 44.1827 4.16301 42.2844 6.34654 41.8884C9.10638 41.3881 11.7289 40.966 14.1413 40.6351C14.6224 40.5691 14.9584 40.1256 14.8925 39.6445C14.8266 39.1638 14.3835 38.8292 13.9024 38.8933C11.4648 39.2284 8.81708 39.6541 6.03297 40.159C3.01266 40.7069 0.820435 43.3322 0.820435 46.4019V56.2704C0.820435 57.2138 1.58856 57.9815 2.53201 57.9815H7.37467C7.53214 58.7638 8.22428 59.3548 9.05191 59.3548H14.9337C15.0385 59.3548 15.1406 59.3442 15.2408 59.3259C15.5535 59.7347 16.0451 60.0002 16.599 60.0002H22.9624C23.2645 60.0002 23.5483 59.9206 23.795 59.7823C24.0418 59.9206 24.3251 60.0002 24.6277 60.0002H30.9911C31.5445 60.0002 32.0361 59.7347 32.3492 59.3259C32.449 59.3438 32.5516 59.3548 32.6564 59.3548H38.5377C39.3658 59.3548 40.0579 58.7638 40.2154 57.9815H45.0576C46.0015 57.9815 46.7692 57.2138 46.7692 56.2704V53.9486H52.039C54.3104 53.9486 56.205 52.0516 56.352 49.6296L58.7488 10.1033C58.7781 9.61895 58.4096 9.20239 57.9249 9.17309C57.4387 9.14105 57.024 9.51229 56.9947 9.99706L56.8839 11.8171C54.3392 11.2078 51.7496 11.1731 49.172 11.715C46.6131 12.2529 44.1096 13.3552 41.7082 14.9967C36.8605 11.6825 31.6411 10.5926 26.5343 11.8171L25.9387 1.99722C25.9337 1.91894 25.9584 1.84341 26.0037 1.79488C26.0266 1.77062 26.0491 1.75826 26.071 1.75826H57.3472C57.3691 1.75826 57.3916 1.77017 57.4145 1.79488C57.4598 1.84295 57.4845 1.91894 57.4795 1.99722L57.2268 6.16971C57.1975 6.65403 57.566 7.07059 58.0507 7.09989C58.5341 7.1301 58.9516 6.76023 58.9809 6.27592L59.2341 2.10387C59.2679 1.54174 59.0711 0.990139 58.6939 0.589597ZM2.57778 51.6397C2.57778 50.3268 3.6462 49.2584 4.95906 49.2584C6.27192 49.2584 7.34034 50.3268 7.34034 51.6397V56.2237H2.57778V51.6397ZM9.09814 52.1528C9.09814 50.5571 10.3964 49.2584 11.9926 49.2584C13.5883 49.2584 14.887 50.5571 14.887 52.1528V57.597H9.09814V52.1528ZM16.6448 52.3941C16.6448 50.6651 18.051 49.2584 19.78 49.2584C21.509 49.2584 22.9157 50.6651 22.9157 52.3941V58.242H16.6448V52.3941ZM30.9444 58.242H24.6735V52.3941C24.6735 50.6651 26.0802 49.2584 27.8087 49.2584C29.5377 49.2584 30.9444 50.6651 30.9444 52.3941V58.242ZM38.491 57.597H32.7022V52.1528C32.7022 50.5571 34.0008 49.2584 35.5966 49.2584C37.1928 49.2584 38.491 50.5571 38.491 52.1528V57.597ZM45.0114 56.2237H40.2488V51.6397C40.2488 50.3268 41.3173 49.2584 42.6301 49.2584C43.943 49.2584 45.0114 50.3268 45.0114 51.6397V56.2237ZM40.2031 16.1068C40.177 16.1279 40.1504 16.1476 40.1239 16.1686C35.7179 19.6879 31.3742 21.8938 27.1958 22.7375L26.6419 13.6029C31.1728 12.4282 35.8319 13.2884 40.2031 16.1068Z" fill="#00C9EA"/>
</g>
<defs>
<clipPath id="clip0">
<rect width="60" height="60" fill="white"/>
</clipPath>
</defs>
</svg>
