<svg width="60" height="60" viewBox="0 0 60 60" fill="none" xmlns="http://www.w3.org/2000/svg">
<g clip-path="url(#clip0)">
<path d="M53.9995 37.5683V36.0015C53.9995 34.3449 52.6564 33.0014 50.9994 33.0014H48.9995C47.3456 33.0014 46.0039 34.3398 45.9994 35.9937C44.0338 35.7355 41.9995 35.5346 39.9996 35.3844V34.0016C39.9996 32.345 38.6566 31.0015 37 31.0015H35.0001C33.343 31.0015 32 32.345 32 34.0016V35.0187C31.3001 35.0077 30.6341 35.0017 30.0001 35.0017C29.3661 35.0017 28.7001 35.0077 28.0002 35.0187V34.0016C28.0002 32.345 26.6571 31.0015 25.0001 31.0015H23.0002C21.3436 31.0015 20.0005 32.345 20.0005 34.0016V35.3844C18.0006 35.5346 15.9655 35.7355 14.0003 35.9937C13.9962 34.3398 12.6541 33.0014 11.0007 33.0014H9.0008C7.34375 33.0014 6.00071 34.3449 6.00071 36.0015V37.5683C2.41881 38.6203 0.000976562 40.0594 0.000976562 42.0012V50.0013C0.00326532 50.7122 0.384113 51.3686 1.0007 51.7229V53.0009C1.0007 54.658 2.3442 56.001 4.0008 56.001H5.185C5.60704 57.1953 6.73402 57.9954 8.00062 58.0009H11.0007C11.5175 57.9977 12.0242 57.86 12.4715 57.6009C13.0185 58.4706 13.9733 58.9988 15.0005 59.0007H19.0004C19.5172 58.9979 20.0243 58.8601 20.4716 58.601C21.0181 59.4703 21.973 59.999 23.0002 60.0009H28.0002C28.7404 59.9981 29.4535 59.7202 30.0001 59.2208C30.5466 59.7202 31.2598 59.9981 32 60.0009H37C38.0272 59.999 38.9816 59.4703 39.5286 58.601C39.9758 58.8601 40.483 58.9979 40.9998 59.0007H44.9996C46.0268 58.9988 46.9817 58.4706 47.5287 57.6009C47.9755 57.86 48.4827 57.9977 48.9995 58.0009H51.9996C53.2662 57.9954 54.3931 57.1953 54.8152 56.001H55.9994C57.656 56.001 58.999 54.658 58.999 53.0009V51.7229C59.6161 51.3686 59.9969 50.7122 59.9992 50.0013V42.0012C59.9992 40.0594 57.5814 38.6203 53.9995 37.5683ZM47.9997 36.0015C47.9997 35.4494 48.4474 35.0017 48.9995 35.0017H50.9994C51.5519 35.0017 51.9996 35.4494 51.9996 36.0015V37.0456C50.7476 36.7554 49.3995 36.5013 47.9997 36.2816V36.0015ZM33.9999 34.0016C33.9999 33.4495 34.4476 33.0014 35.0001 33.0014H37C37.552 33.0014 37.9997 33.4495 37.9997 34.0016V35.2494C36.6228 35.1665 35.2798 35.1075 33.9999 35.0677V34.0016ZM22.0004 34.0016C22.0004 33.4495 22.4481 33.0014 23.0002 33.0014H25.0001C25.5526 33.0014 26.0003 33.4495 26.0003 34.0016V35.0677C24.7204 35.1075 23.3774 35.1674 22.0004 35.2494V34.0016ZM8.00062 36.0015C8.00062 35.4494 8.4483 35.0017 9.0008 35.0017H11.0007C11.5528 35.0017 12.0004 35.4494 12.0004 36.0015V36.2816C10.6006 36.5013 9.25256 36.7554 8.00062 37.0456V36.0015ZM30.0001 37.0017C48.1165 37.0017 57.9993 40.3016 57.9993 42.0012V47.9281C57.5136 47.4873 56.8778 47.2484 56.2223 47.2603C55.5787 47.2621 54.953 47.4727 54.4394 47.8599C53.7189 46.5888 52.3484 45.8271 50.8886 45.8861C49.5213 45.8893 48.2185 46.4684 47.2994 47.4814C46.4823 46.148 45.0024 45.367 43.4405 45.4453C41.8535 45.4449 40.3457 46.1393 39.3139 47.345C38.4305 45.8152 36.7643 44.9097 35.0001 45.0013C32.9878 45.0027 31.1101 46.0129 30.0001 47.691C28.89 46.0129 27.0124 45.0027 25.0001 45.0013C23.2341 44.9093 21.566 45.8165 20.6835 47.3491C19.6517 46.1429 18.1434 45.449 16.5564 45.4494C14.9964 45.3716 13.5183 46.1502 12.7008 47.4814C11.7816 46.4707 10.4802 45.8934 9.11478 45.8902C7.65364 45.8298 6.28177 46.592 5.56081 47.8641C5.04721 47.4763 4.42147 47.2658 3.77787 47.264C3.12283 47.2516 2.48702 47.4887 2.00089 47.9281V42.0012C2.00089 40.3016 11.8837 37.0017 30.0001 37.0017ZM3.00107 53.0009V50.3341C3.00107 50.1551 3.03769 49.2602 3.77787 49.2602C4.54232 49.3847 5.07788 50.0823 5.00098 50.8532V54.0011H4.0008C3.44875 54.0011 3.00107 53.5534 3.00107 53.0009ZM11.0007 56.001H8.00062C7.44857 56.001 7.00089 55.5534 7.00089 55.0008V50.0013C6.96381 49.4309 7.17438 48.872 7.57857 48.4678C7.98277 48.0636 8.54122 47.8531 9.11158 47.8902C10.7064 47.892 11.9991 49.1842 12.0004 50.779V55.0008C12.0004 55.5534 11.5528 56.001 11.0007 56.001ZM19.0004 57.0008H15.0005C14.448 57.0008 14.0003 56.5531 14.0003 56.001V50.0013C13.9669 49.3133 14.2256 48.6436 14.7121 48.157C15.1992 47.67 15.8689 47.4118 16.5564 47.4452C18.4579 47.4475 19.9987 48.9888 20.0005 50.8902V56.001C20.0005 56.5531 19.5529 57.0008 19.0004 57.0008ZM28.0002 58.0009H23.0002C22.4481 58.0009 22.0004 57.5533 22.0004 57.0008V50.0013C21.9611 49.1943 22.265 48.4083 22.8358 47.8371C23.4071 47.2658 24.1931 46.9623 25.0001 47.0012C27.2092 47.0012 28.9999 48.7919 28.9999 51.001V57.0008C28.9999 57.5533 28.5522 58.0009 28.0002 58.0009ZM37.9997 57.0008C37.9997 57.5533 37.552 58.0009 37 58.0009H32C31.448 58.0009 30.9998 57.5533 30.9998 57.0008V51.001C30.9998 48.7919 32.791 47.0012 35.0001 47.0012C35.8066 46.9623 36.5926 47.2658 37.1639 47.8371C37.7351 48.4083 38.0386 49.1943 37.9997 50.0013V57.0008ZM45.9994 56.001C45.9994 56.5531 45.5517 57.0008 44.9996 57.0008H40.9998C40.4473 57.0008 39.9996 56.5531 39.9996 56.001V50.8902C40.0015 48.9888 41.5423 47.4475 43.4438 47.4452C44.1313 47.4118 44.801 47.67 45.288 48.157C45.7746 48.6436 46.0332 49.3133 45.9994 50.0013V56.001ZM52.9993 55.0008C52.9993 55.5534 52.5516 56.001 51.9996 56.001H48.9995C48.4474 56.001 47.9997 55.5534 47.9997 55.0008V50.779C48.0011 49.1842 49.2938 47.892 50.8886 47.8902C51.459 47.8531 52.0174 48.0636 52.4216 48.4678C52.8258 48.872 53.0364 49.4309 52.9993 50.0013V55.0008ZM56.9991 53.0009C56.9991 53.5534 56.5514 54.0011 55.9994 54.0011H54.9992V50.8532C54.9223 50.0823 55.4579 49.3847 56.2223 49.2602C56.9625 49.2602 56.9991 50.1601 56.9991 50.3341V53.0009Z" fill="#00C9EA"/>
<path d="M59.617 2.18272L59.9333 1.36197C60.1315 0.846089 59.8742 0.267035 59.3583 0.0688297C58.8424 -0.129376 58.2634 0.127879 58.0652 0.643764L57.7503 1.46497C55.0518 8.39622 48.3888 12.9723 40.9508 13.0026H19.0511C11.6127 12.9733 4.94832 8.39713 2.24989 1.46497L1.93495 0.643764C1.73675 0.127879 1.1577 -0.129376 0.641811 0.0688297C0.125926 0.267035 -0.131329 0.846089 0.0668766 1.36197L0.382724 2.18272C3.38144 9.88437 10.7846 14.9686 19.0493 15.0025H40.9485C49.2141 14.9695 56.6182 9.88482 59.617 2.18272Z" fill="#00C9EA"/>
<path d="M24.0003 29.0017C24.5524 29.0017 25 28.5541 25 28.002V20.4162L26.2932 21.7093C26.6855 22.0879 27.3094 22.0829 27.6948 21.697C28.0807 21.3111 28.0862 20.6876 27.7072 20.2953L24.7071 17.2952C24.6984 17.2861 24.686 17.2833 24.6773 17.2751C24.5917 17.1913 24.4924 17.1241 24.383 17.0751C24.3752 17.0751 24.3651 17.0751 24.3574 17.0691C24.2562 17.0316 24.15 17.0105 24.042 17.0073C24.0086 17.0073 23.9756 17.0096 23.9422 17.0133C23.8584 17.0183 23.7756 17.0343 23.6964 17.0613C23.662 17.071 23.6286 17.0824 23.5961 17.0961C23.4849 17.1437 23.3833 17.2119 23.2963 17.2962L20.2962 20.2963C19.9172 20.6885 19.9227 21.312 20.3086 21.6979C20.694 22.0838 21.3179 22.0893 21.7102 21.7102L23.0001 20.4162V28.002C23.0001 28.5541 23.4478 29.0017 24.0003 29.0017Z" fill="#00C9EA"/>
<path d="M35.9998 29.0017C36.5523 29.0017 37 28.5541 37 28.002V20.4162L38.2927 21.7093C38.6849 22.0879 39.3089 22.0829 39.6947 21.697C40.0802 21.3111 40.0857 20.6876 39.7066 20.2953L36.707 17.2952C36.6979 17.2861 36.686 17.2833 36.6768 17.2751C36.5917 17.1913 36.4919 17.1241 36.3829 17.0751C36.3747 17.0751 36.3646 17.0751 36.3568 17.0691C36.2561 17.0316 36.1495 17.0105 36.0419 17.0073C36.0085 17.0073 35.9751 17.0096 35.9417 17.0133C35.8579 17.0183 35.7755 17.0343 35.6958 17.0613C35.662 17.071 35.6286 17.0824 35.5961 17.0961C35.4844 17.1437 35.3827 17.2119 35.2958 17.2962L32.2961 20.2963C31.9171 20.6885 31.9226 21.312 32.308 21.6979C32.6939 22.0838 33.3174 22.0893 33.7101 21.7102L35.0001 20.4162V28.002C35.0001 28.5541 35.4477 29.0017 35.9998 29.0017Z" fill="#00C9EA"/>
<path d="M49.9996 31.0017C50.5517 31.0017 50.9994 30.5541 50.9994 30.002V22.4162L52.2925 23.7093C52.6848 24.0879 53.3083 24.0829 53.6941 23.697C54.08 23.3111 54.0855 22.6876 53.7065 22.2953L50.7064 19.2952C50.6972 19.2861 50.6853 19.2833 50.6766 19.2751C50.5911 19.1918 50.4917 19.1241 50.3823 19.0751C50.3736 19.0751 50.3645 19.0751 50.3553 19.0691C50.2546 19.032 50.1489 19.011 50.0413 19.0073C50.0079 19.0073 49.9745 19.0096 49.9415 19.0133C49.8573 19.0183 49.7744 19.0343 49.6943 19.0613C49.6614 19.0723 49.6293 19.0815 49.5945 19.0952C49.4833 19.1433 49.3817 19.211 49.2947 19.2952L46.2946 22.2953C45.9156 22.6876 45.9211 23.3111 46.307 23.697C46.6924 24.0829 47.3163 24.0879 47.7086 23.7093L48.9995 22.4162V30.002C48.9995 30.5541 49.4471 31.0017 49.9996 31.0017Z" fill="#00C9EA"/>
<path d="M9.00074 31.0017C9.55279 31.0017 10.0005 30.554 10.0005 30.0019V22.4161L11.2936 23.7092C11.6859 24.0878 12.3098 24.0828 12.6952 23.6969C13.0811 23.311 13.0866 22.6875 12.7076 22.2952L9.70751 19.2952C9.69881 19.286 9.68645 19.2832 9.67775 19.275C9.59215 19.1917 9.49282 19.124 9.38342 19.075C9.37564 19.075 9.36557 19.075 9.35641 19.069C9.25617 19.0315 9.14997 19.0109 9.0424 19.0081C9.00944 19.0077 8.97602 19.0091 8.94261 19.0132C8.85838 19.0182 8.77553 19.0342 8.69542 19.0612C8.54528 19.1047 8.40795 19.1844 8.29581 19.2933L5.29571 22.293C4.91669 22.6852 4.92219 23.3092 5.30807 23.695C5.6935 24.0805 6.31741 24.086 6.7097 23.7069L8.00056 22.4161V30.0019C8.00056 30.554 8.44824 31.0017 9.00074 31.0017Z" fill="#00C9EA"/>
</g>
<defs>
<clipPath id="clip0">
<rect width="60" height="60" fill="white"/>
</clipPath>
</defs>
</svg>
