<svg width="60" height="60" viewBox="0 0 60 60" fill="none" xmlns="http://www.w3.org/2000/svg">
<g clip-path="url(#clip0)">
<path d="M3.54468 47.7808C3.13862 47.5146 2.59366 47.6278 2.32744 48.034C0.804847 50.3563 0 53.0494 0 55.8223V58.9813C0 59.4669 0.393632 59.8605 0.879166 59.8605C1.3647 59.8605 1.75833 59.4669 1.75833 58.9813V55.8223C1.75833 53.3929 2.46366 51.0331 3.79788 48.9981C4.06409 48.5921 3.95074 48.047 3.54468 47.7808Z" fill="#00C9EA"/>
<path d="M14.0955 52.2358H6.85384C6.03153 52.2358 5.36243 52.9049 5.36243 53.7273V56.4278C5.36243 57.2501 6.03153 57.9192 6.85384 57.9192H14.0955C14.9178 57.9192 15.5869 57.2501 15.5869 56.4278V53.7273C15.5869 52.9049 14.9178 52.2358 14.0955 52.2358ZM13.8286 56.1609H7.12076V53.9943H13.8286V56.1609Z" fill="#00C9EA"/>
<path d="M26.6088 10.3491C24.656 10.3491 23.0673 11.9378 23.0673 13.8906C23.0673 15.8434 24.656 17.4321 26.6088 17.4321C28.5617 17.4321 30.1505 15.8434 30.1505 13.8906C30.1505 11.9378 28.5617 10.3491 26.6088 10.3491ZM26.6088 15.6738C25.6256 15.6738 24.8257 14.8739 24.8257 13.8906C24.8257 12.9074 25.6256 12.1075 26.6088 12.1075C27.5921 12.1075 28.3921 12.9074 28.3921 13.8906C28.3921 14.8739 27.5921 15.6738 26.6088 15.6738Z" fill="#00C9EA"/>
<path d="M52.8608 32.1302C52.4472 31.8758 51.9058 32.0045 51.6511 32.418C51.3965 32.8315 51.5255 33.373 51.9388 33.6275C55.8854 36.0575 58.2416 40.271 58.2416 44.8984C58.2416 52.1916 52.3082 58.1249 45.015 58.1249C37.7218 58.1249 31.7884 52.1915 31.7884 44.8984C31.7884 37.6053 37.7218 31.6719 45.015 31.6719C46.2704 31.6719 47.5137 31.8481 48.7103 32.1957C49.1763 32.3307 49.6643 32.0628 49.7997 31.5965C49.9351 31.1302 49.6669 30.6425 49.2007 30.5071C47.8447 30.1133 46.4363 29.9136 45.015 29.9136C38.2012 29.9136 32.4357 34.4852 30.623 40.7221L28.6591 39.9208V36.252C31.5529 33.9605 33.3371 30.4289 33.3371 26.6043V26.1585C35.4474 26.0272 37.1244 24.2696 37.1244 22.1267C37.1244 21.5269 36.9921 20.9577 36.7566 20.4453L36.7571 16.4411C37.6681 16.2111 38.3451 15.3872 38.3451 14.4058V13.376C38.3451 12.2606 37.4711 11.3482 36.3724 11.2811L36.3758 11.0845L36.2622 9.00104C36.1178 6.35241 34.4703 3.99003 32.0468 2.93327L31.92 2.80925C30.4338 1.35675 28.3951 0.637829 26.3268 0.837107L25.3911 0.927251L24.8202 0.682843C23.0595 -0.0713642 21.0399 -0.0713642 19.2794 0.682843L18.7086 0.927251L17.7728 0.837107C15.7045 0.637829 13.6659 1.35675 12.1799 2.80925L12.0531 2.93327C9.62972 3.98991 7.98205 6.35229 7.83775 9.00104L7.72135 11.1326L7.7101 11.3591C6.83515 11.6131 6.19324 12.4203 6.19324 13.376V14.4058C6.19324 15.2319 6.6735 15.9461 7.36851 16.2892V20.3893C7.1166 20.916 6.97523 21.5051 6.97523 22.1267C6.97523 24.2697 8.65221 26.0273 10.7626 26.1585V26.6393C10.7626 30.5189 12.6021 34.105 15.5753 36.394V39.9208L8.83965 42.6691C7.4304 43.2441 6.12783 44.0392 4.96792 45.0326C4.59914 45.3484 4.55623 45.9035 4.87215 46.2723C5.04599 46.4753 5.29239 46.5795 5.54031 46.5795C5.74276 46.5795 5.94602 46.51 6.11177 46.368C7.1282 45.4975 8.26948 44.8007 9.50394 44.2971L14.4798 42.2669L21.3009 59.3305C21.4345 59.6644 21.7578 59.8833 22.1173 59.8833C22.4768 59.8833 22.8002 59.6643 22.9336 59.3305L29.7546 42.2669L30.2294 42.4606C30.0989 43.2543 30.03 44.0684 30.03 44.8984C30.03 53.1612 36.7522 59.8833 45.0149 59.8833C53.2776 59.8833 59.9998 53.1611 59.9998 44.8984C59.9999 39.6558 57.331 34.8827 52.8608 32.1302ZM33.3371 18.0949V16.5071H34.9987L34.9983 18.5695C34.4983 18.2993 33.935 18.1321 33.3371 18.0949ZM26.6089 19.1907C23.6864 19.1907 21.3089 16.8132 21.3089 13.8908C21.3089 10.9685 23.6864 8.591 26.6089 8.591C29.5312 8.591 31.9087 10.9685 31.9087 13.8908C31.9087 16.8132 29.5312 19.1907 26.6089 19.1907ZM33.3371 24.3939V19.8594C34.4766 19.9859 35.3661 20.9541 35.3661 22.1267C35.3661 23.2994 34.4766 24.2675 33.3371 24.3939ZM36.5867 13.3759V14.4057C36.5867 14.5949 36.4328 14.7487 36.2437 14.7487H33.613C33.6472 14.4672 33.667 14.1813 33.667 13.8907C33.667 13.6001 33.6474 13.3142 33.613 13.0328H36.2437C36.4329 13.0329 36.5867 13.1868 36.5867 13.3759ZM9.59327 9.09669C9.70404 7.06523 10.9936 5.25825 12.8788 4.49326C12.9846 4.45024 13.0811 4.38718 13.1627 4.30735L13.4088 4.06669C14.5235 2.97723 16.052 2.43813 17.6042 2.58735L18.7638 2.69906C18.9102 2.71325 19.0586 2.69027 19.1941 2.63213L19.9716 2.2991C21.2924 1.7335 22.8071 1.7335 24.1279 2.2991L24.9054 2.63213C25.0409 2.69027 25.1891 2.71325 25.3357 2.69906L26.4953 2.58735C28.047 2.43801 29.5761 2.97723 30.6907 4.06657L30.9368 4.30723C31.0185 4.38706 31.115 4.45024 31.2209 4.49326C33.1059 5.25825 34.3956 7.06523 34.5062 9.09669L34.6222 11.2239C34.6224 11.2276 34.6215 11.2458 34.6196 11.2747H33.1622C32.1204 8.67469 29.5765 6.83266 26.6088 6.83266C23.641 6.83266 21.097 8.67469 20.0553 11.2747H15.2292C14.7437 11.2747 14.35 11.6683 14.35 12.1538C14.35 12.6394 14.7437 13.033 15.2292 13.033H19.6045C19.5703 13.3145 19.5505 13.6004 19.5505 13.891C19.5505 14.1816 19.5702 14.4675 19.6045 14.7489H8.29468C8.10549 14.7489 7.95169 14.595 7.95169 14.4059V13.3761C7.95169 13.1869 8.1056 13.0331 8.29468 13.0331H11.4825C11.9681 13.0331 12.3617 12.6395 12.3617 12.154C12.3617 11.6684 11.9681 11.2748 11.4825 11.2748H9.47476L9.47722 11.224L9.59327 9.09669ZM10.7627 18.0949C10.1748 18.1315 9.6207 18.2941 9.12696 18.5563V16.507H10.7627V18.0949ZM8.73368 22.1266C8.73368 20.9539 9.62316 19.9858 10.7627 19.8593V24.3939C9.62316 24.2675 8.73368 23.2994 8.73368 22.1266ZM12.521 26.6392V16.507H20.0553C21.0971 19.107 23.641 20.949 26.6088 20.949C28.5454 20.949 30.3021 20.1646 31.5786 18.8973V26.6043C31.5786 31.0575 28.7587 35.0498 24.5617 36.5388L24.4752 36.5696C22.8689 37.1394 21.101 37.1359 19.497 36.5594C15.3244 35.0596 12.521 31.0731 12.521 26.6392ZM18.9023 38.2139C19.901 38.5729 20.9506 38.7522 22.0005 38.7522C23.0378 38.7522 24.0754 38.577 25.0633 38.2265L25.1497 38.1958C25.7594 37.9795 26.3441 37.7179 26.9006 37.4156V40.3034L23.3502 43.3547C22.6238 43.979 21.532 43.9747 20.8104 43.3449L17.3337 40.3098V37.5202C17.8356 37.7848 18.3583 38.0184 18.9023 38.2139ZM22.1173 56.6356L16.1079 41.6026L16.1306 41.5933L19.6542 44.6695C20.3459 45.2734 21.216 45.5755 22.0864 45.5755C22.947 45.5755 23.808 45.2799 24.4964 44.6882L28.0996 41.5916L28.1267 41.6026L22.1173 56.6356Z" fill="#00C9EA"/>
<path d="M45.7277 37.3054C45.3518 37.5783 44.8468 37.5783 44.4709 37.3054C42.2556 35.6964 39.2102 35.761 37.065 37.4624C34.484 39.5095 33.9803 43.2 35.9181 45.8643L38.5346 49.4612L38.9387 53.2903C39.0662 54.498 40.0782 55.4088 41.2926 55.4088C42.4309 55.4088 43.4092 54.5968 43.619 53.4782L44.3349 49.6607C44.404 49.2934 44.7253 49.0266 45.0992 49.0266C45.4731 49.0266 45.7946 49.2933 45.8635 49.6607L46.5795 53.4782C46.7893 54.5968 47.7676 55.4088 48.9059 55.4088C50.1202 55.4088 51.1321 54.498 51.2597 53.2903L51.6638 49.4612L54.2803 45.8642C56.2181 43.2 55.7142 39.5095 53.1334 37.4624C50.9886 35.7611 47.9431 35.6963 45.7277 37.3054ZM52.0406 38.84C53.8808 40.2995 54.2399 42.9305 52.8584 44.8299L50.1033 48.6175C50.0126 48.7423 49.9562 48.8888 49.9399 49.0424L49.511 53.1058C49.4783 53.4163 49.218 53.6505 48.9059 53.6505C48.6132 53.6505 48.3616 53.4417 48.3076 53.1541L47.5917 49.3367C47.367 48.1381 46.3188 47.2682 45.0992 47.2682C43.8799 47.2682 42.8317 48.138 42.6068 49.3366L41.8909 53.1541C41.8369 53.4417 41.5855 53.6505 41.2926 53.6505C40.9804 53.6505 40.7201 53.4163 40.6874 53.1058L40.2586 49.0424C40.2423 48.8888 40.1861 48.7423 40.0952 48.6175L37.34 44.8299C35.9585 42.9305 36.3175 40.2995 38.1578 38.84C39.6869 37.6269 41.8582 37.581 43.4376 38.728C44.4314 39.4498 45.7669 39.4498 46.7609 38.728C48.3405 37.581 50.5113 37.6271 52.0406 38.84Z" fill="#00C9EA"/>
<path d="M43.3512 41.1L43.3488 41.0986C42.9375 40.8413 42.3946 40.9664 42.1373 41.3782C41.88 41.79 42.0052 42.3324 42.417 42.5897C42.4199 42.5917 42.4253 42.5949 42.4285 42.5968C43.2269 43.0821 44.1621 43.3248 45.0974 43.3248C46.0339 43.3248 46.9704 43.0815 47.7692 42.5951C48.184 42.3426 48.3155 41.8016 48.063 41.387C47.8104 40.9721 47.2693 40.8408 46.8548 41.0933C45.8045 41.7328 44.3928 41.733 43.3512 41.1Z" fill="#00C9EA"/>
</g>
<defs>
<clipPath id="clip0">
<rect width="60" height="60" fill="white"/>
</clipPath>
</defs>
</svg>
