<svg width="60" height="60" viewBox="0 0 60 60" fill="none" xmlns="http://www.w3.org/2000/svg">
<g clip-path="url(#clip0)">
<path d="M29.211 51.614C29.4005 51.8573 29.6916 51.9996 30 51.9996C30.3084 51.9996 30.5995 51.8573 30.789 51.614L51.789 24.614C52.0234 24.3126 52.0657 23.904 51.898 23.561C51.8795 23.5287 51.8587 23.4976 51.836 23.468H51.844L44.844 12.468C44.6557 12.1878 44.3375 12.0231 44 12.031V12H16V12.031C15.6635 12.022 15.3455 12.1847 15.156 12.463L8.15602 23.463H8.16402C8.1413 23.4926 8.12058 23.5237 8.10202 23.556C7.93435 23.899 7.97664 24.3076 8.21102 24.609L29.211 51.614ZM31.822 14H42.178L37 22.137L31.822 14ZM35.178 23H24.822L30 14.863L35.178 23ZM23 22.137L17.822 14H28.178L23 22.137ZM11.045 25H22.233L28.157 47L11.045 25ZM31.881 46.953L35.1 35.3C35.2313 34.7737 34.9191 34.2388 34.3963 34.0942C33.8736 33.9496 33.3308 34.2481 33.173 34.767L30.014 46.2L24.305 25H35.705L34.471 29.749C34.366 30.0999 34.4612 30.4802 34.7193 30.7402C34.9773 31.0002 35.3569 31.0983 35.7086 30.9959C36.0604 30.8935 36.3279 30.6069 36.406 30.249L37.773 25H48.955L31.881 46.953ZM49.178 23H38.822L44 14.863L49.178 23ZM16 14.863L21.178 23H10.822L16 14.863Z" fill="#00C9EA"/>
<path d="M1 31H4C4.55228 31 5 30.5523 5 30C5 29.4477 4.55228 29 4 29H1C0.447715 29 0 29.4477 0 30C0 30.5523 0.447715 31 1 31Z" fill="#00C9EA"/>
<path d="M56 31H59C59.5523 31 60 30.5523 60 30C60 29.4477 59.5523 29 59 29H56C55.4477 29 55 29.4477 55 30C55 30.5523 55.4477 31 56 31Z" fill="#00C9EA"/>
<path d="M31 59V56C31 55.4477 30.5523 55 30 55C29.4477 55 29 55.4477 29 56V59C29 59.5523 29.4477 60 30 60C30.5523 60 31 59.5523 31 59Z" fill="#00C9EA"/>
<path d="M30 5C30.5523 5 31 4.55228 31 4V1C31 0.447715 30.5523 0 30 0C29.4477 0 29 0.447715 29 1V4C29 4.55228 29.4477 5 30 5Z" fill="#00C9EA"/>
<path d="M10.9081 47.6782L8.78705 49.8002C8.5169 50.0488 8.40473 50.4255 8.49485 50.7814C8.58497 51.1373 8.86289 51.4152 9.21881 51.5054C9.57473 51.5955 9.95141 51.4833 10.2001 51.2132L12.3211 49.0922C12.7 48.6998 12.6946 48.0761 12.3089 47.6904C11.9231 47.3046 11.2994 47.2992 10.9071 47.6782H10.9081Z" fill="#00C9EA"/>
<path d="M48.385 12.6147C48.6502 12.6146 48.9046 12.5092 49.092 12.3217L51.213 10.1997C51.4832 9.95104 51.5954 9.57436 51.5052 9.21844C51.4151 8.86252 51.1372 8.58461 50.7813 8.49449C50.4254 8.40437 50.0487 8.51654 49.8 8.78668L47.679 10.9077C47.3931 11.1937 47.3076 11.6237 47.4624 11.9973C47.6171 12.371 47.9817 12.6146 48.386 12.6147H48.385Z" fill="#00C9EA"/>
<path d="M50.506 51.5062C50.9104 51.5061 51.2749 51.2624 51.4297 50.8888C51.5844 50.5152 51.4989 50.0852 51.213 49.7992L49.092 47.6782C48.6996 47.2992 48.0759 47.3046 47.6902 47.6904C47.3044 48.0761 47.299 48.6998 47.678 49.0922L49.8 51.2132C49.9872 51.4005 50.2411 51.5059 50.506 51.5062Z" fill="#00C9EA"/>
<path d="M10.908 12.3217C11.3004 12.7007 11.9241 12.6952 12.3099 12.3095C12.6956 11.9238 12.701 11.3001 12.322 10.9077L10.2 8.78668C9.95141 8.51654 9.57473 8.40437 9.21881 8.49449C8.86289 8.58461 8.58497 8.86252 8.49485 9.21844C8.40473 9.57436 8.5169 9.95104 8.78705 10.1997L10.908 12.3217Z" fill="#00C9EA"/>
</g>
<defs>
<clipPath id="clip0">
<rect width="60" height="60" fill="white"/>
</clipPath>
</defs>
</svg>
