<svg width="60" height="60" viewBox="0 0 60 60" fill="none" xmlns="http://www.w3.org/2000/svg">
<path d="M42.1104 30.1855C40.0524 30.1855 38.3773 31.8606 38.3773 33.9187C38.3773 35.9767 40.0524 37.6518 42.1104 37.6518C44.1684 37.6518 45.8435 35.9767 45.8435 33.9187C45.8435 31.8606 44.1684 30.1855 42.1104 30.1855ZM42.1104 35.7754C41.0856 35.7754 40.2537 34.9435 40.2537 33.9187C40.2537 32.8938 41.0866 32.0619 42.1104 32.0619C43.1352 32.0619 43.9672 32.8938 43.9672 33.9187C43.9681 34.9435 43.1352 35.7754 42.1104 35.7754Z" fill="#00C9EA"/>
<path d="M28.1348 15.6657C32.4548 15.6657 35.9681 12.1515 35.9681 7.83237C35.969 3.51418 32.4548 0 28.1348 0C23.8166 0 20.3033 3.51418 20.3033 7.83143C20.3033 12.1515 23.8175 15.6657 28.1348 15.6657ZM28.1348 1.8633C31.4263 1.8633 34.1048 4.54085 34.1048 7.83143C34.1048 11.1229 31.4263 13.8014 28.1348 13.8014C24.8442 13.8014 22.1666 11.1229 22.1666 7.83143C22.1666 4.54085 24.8442 1.8633 28.1348 1.8633Z" fill="#00C9EA"/>
<path d="M37.5463 25.9118C33.1265 23.6498 28.4273 23.6461 23.5809 25.896C23.116 26.1112 22.9148 26.6627 23.1309 27.1267C23.2874 27.4649 23.6219 27.6633 23.9722 27.6633C24.1026 27.6633 24.2349 27.6363 24.3616 27.5767C28.7254 25.5513 32.7632 25.5466 36.7022 27.5608C37.1606 27.7947 37.7177 27.6149 37.9497 27.1574C38.1835 26.7028 38.0019 26.1447 37.5463 25.9118Z" fill="#00C9EA"/>
<path d="M57.9485 33.4767H53.7123C52.53 29.8275 50.0705 26.6272 46.7938 24.1602C46.8069 24.0727 46.8227 23.986 46.8097 23.8938L45.7141 16.0884C45.6638 15.7307 45.4104 15.4344 45.0638 15.3292C44.7172 15.2257 44.3427 15.331 44.1032 15.6021L39.7832 20.4728C36.9128 19.4815 33.7871 18.9262 30.5478 18.9262C18.8174 18.9262 9.03695 25.772 6.99943 34.7717C5.44358 34.8882 4.2902 34.659 3.65668 34.0972C3.20856 33.6994 2.98589 33.1124 2.97751 32.3019C2.96074 30.7824 3.30359 29.7306 3.99394 29.1762C4.88646 28.4617 6.17399 28.7449 6.21592 28.7523C6.70317 28.8734 7.21092 28.5707 7.33389 28.0741C7.4578 27.5775 7.15502 27.0744 6.65659 26.9515C6.56808 26.9291 4.47653 26.4307 2.85267 27.7135C1.68159 28.6405 1.09931 30.1899 1.12353 32.3205C1.13843 33.6649 1.57631 34.7298 2.4269 35.4826C3.30731 36.2642 4.59299 36.6574 6.25784 36.6574C6.39479 36.6574 6.55131 36.6378 6.69292 36.6322C6.63795 37.167 6.60255 37.7055 6.60255 38.2505C6.60255 43.655 9.40495 48.8088 14.3091 52.46L14.2747 59.0719C14.2747 59.5843 14.6893 59.9989 15.2017 59.9989H22.8738C23.3862 59.9989 23.8008 59.5843 23.8008 59.0719V56.8005C25.9808 57.3157 28.2457 57.5766 30.5459 57.5766C33.6362 57.5766 35.7454 57.1089 38.3867 56.2425V59.0719C38.3867 59.5843 38.8012 59.9989 39.3136 59.9989H46.9858C47.4982 59.9989 47.9128 59.5843 47.9128 59.0719V51.5479C49.7304 50.0014 51.2359 48.2238 52.3325 46.285C52.4732 46.0363 52.475 45.7558 52.3828 45.508C52.4378 45.5034 52.4899 45.5043 52.5449 45.4996C58.5233 44.9947 58.8997 42.9274 58.8736 42.346V34.4028C58.8764 33.8913 58.4609 33.4767 57.9485 33.4767ZM44.1582 18.3356L44.7861 22.8094C43.7865 22.2038 42.7337 21.6597 41.6297 21.1855L44.1582 18.3356ZM52.3912 43.6531C47.2252 44.0854 43.1362 41.5849 43.0952 41.5606C42.6592 41.2886 42.0881 41.4218 41.8179 41.856C41.5477 42.2901 41.6782 42.8603 42.1114 43.1323C42.2763 43.2367 45.783 45.4009 50.6127 45.5481C49.1239 48.1008 46.8544 50.361 44.025 52.0883C43.5871 52.3556 43.4502 52.9258 43.7166 53.3627C43.8918 53.6497 44.1973 53.8071 44.5094 53.8071C44.6744 53.8071 44.8411 53.7634 44.992 53.6711C45.3582 53.4475 45.7131 53.2137 46.0616 52.9743V58.1449H40.2434V55.7263C40.2434 55.418 40.0897 55.1292 39.8344 54.9568L39.0686 54.4416C38.8273 54.2804 38.5283 54.2394 38.2553 54.3326C35.52 55.254 33.5775 55.7217 30.5496 55.7217C28.145 55.7217 25.7852 55.4189 23.5334 54.8198C23.4477 54.7975 23.3592 54.7863 23.2735 54.7891L22.8561 54.7993C22.3521 54.8115 21.9505 55.2232 21.9505 55.7263V58.1449H16.1324V54.2636L16.1762 52.0137C16.1818 51.7072 16.0364 51.4175 15.7867 51.2405C11.1304 47.9266 8.46026 43.1919 8.46026 38.2514C8.46026 28.6172 18.3702 20.7802 30.5506 20.7802C40.835 20.7802 49.9111 26.6133 52.1322 34.6497C52.2431 35.0521 52.6092 35.3298 53.0256 35.3298H53.7365V37.8862C53.7365 38.3986 54.1511 38.8132 54.6635 38.8132C55.1759 38.8132 55.5905 38.3986 55.5905 37.8862V35.3298H57.0243L57.0252 42.2556C56.9274 42.4103 56.1998 43.3317 52.3912 43.6531Z" fill="#00C9EA"/>
</svg>
