<svg width="60" height="60" viewBox="0 0 60 60" fill="none" xmlns="http://www.w3.org/2000/svg">
<path d="M30 58.3785C29.8351 58.3787 29.674 58.3283 29.5386 58.2341C13.8649 47.3822 7.46918 36.2904 7.46918 19.9509V12.4322C7.46918 12.2774 7.51354 12.1257 7.59702 11.9952C7.68051 11.8648 7.79962 11.7609 7.94026 11.696L29.6611 1.6963C29.7674 1.64739 29.883 1.62207 30 1.62207C30.117 1.62207 30.2326 1.64739 30.3389 1.6963L52.0597 11.696C52.2004 11.7609 52.3195 11.8648 52.403 11.9952C52.4864 12.1257 52.5308 12.2774 52.5308 12.4322V19.9509C52.5308 36.2904 46.1367 47.3822 30.4613 58.2341C30.3259 58.3283 30.1649 58.3787 30 58.3785ZM9.0908 12.952V19.9509C9.0908 38.1171 17.4324 47.786 30 56.5801C42.5676 47.786 50.9092 38.1171 50.9092 19.9509V12.952L30 3.32441L9.0908 12.952Z" fill="#00C9EA"/>
<path d="M29.9999 52.6132C29.8245 52.6132 29.6538 52.5563 29.5135 52.451C20.5021 45.7156 12.1621 37.104 12.1621 19.8507V15.4051C12.162 15.2499 12.2064 15.0981 12.2901 14.9674C12.3737 14.8368 12.4931 14.7329 12.634 14.668L29.661 6.82912C29.7673 6.78021 29.8829 6.75488 29.9999 6.75488C30.117 6.75488 30.2326 6.78021 30.3389 6.82912L47.3659 14.668C47.5068 14.7329 47.6262 14.8368 47.7098 14.9674C47.7935 15.0981 47.8379 15.2499 47.8378 15.4051V19.8515C47.8378 37.1048 39.4978 45.7164 30.4864 52.4518C30.346 52.5568 30.1753 52.6134 29.9999 52.6132ZM13.7837 15.9232V19.8507C13.7837 33.0337 18.4864 42.0353 29.9999 50.7864C41.5135 42.0353 46.2162 33.0297 46.2162 19.8507V15.9232L29.9999 8.45722L13.7837 15.9232Z" fill="#00C9EA"/>
<path d="M26.6092 33.3177C26.3942 33.3176 26.188 33.2322 26.0359 33.0801L21.3186 28.3628C21.2412 28.288 21.1794 28.1985 21.1369 28.0996C21.0944 28.0007 21.0721 27.8943 21.0711 27.7867C21.0702 27.679 21.0907 27.5722 21.1315 27.4726C21.1723 27.3729 21.2325 27.2824 21.3086 27.2063C21.3847 27.1301 21.4752 27.0699 21.5749 27.0292C21.6745 26.9884 21.7813 26.9679 21.889 26.9688C21.9966 26.9698 22.103 26.9921 22.2019 27.0346C22.3009 27.0771 22.3903 27.1389 22.4651 27.2163L26.6092 31.3604L37.5349 20.4331C37.6096 20.3556 37.6991 20.2939 37.798 20.2514C37.897 20.2089 38.0034 20.1865 38.111 20.1856C38.2187 20.1846 38.3254 20.2052 38.4251 20.2459C38.5247 20.2867 38.6153 20.3469 38.6914 20.423C38.7675 20.4992 38.8277 20.5897 38.8685 20.6893C38.9093 20.789 38.9298 20.8957 38.9288 21.0034C38.9279 21.1111 38.9055 21.2175 38.863 21.3164C38.8206 21.4153 38.7588 21.5048 38.6813 21.5796L27.1824 33.0817C27.0301 33.2332 26.824 33.3181 26.6092 33.3177Z" fill="#00C9EA"/>
</svg>
