<svg width="60" height="60" viewBox="0 0 60 60" fill="none" xmlns="http://www.w3.org/2000/svg">
<g clip-path="url(#clip0)">
<path d="M14.4646 21.4737C14.8506 22.0922 15.2371 22.7117 15.5901 23.3562C16.6146 25.1174 17.2848 27.0618 17.5624 29.0802C17.7801 31.4371 18.1884 33.7722 18.7827 36.0631C19.2264 37.6698 20.1519 41.0136 23.0929 41.0136C23.9509 41.0136 26.5604 41.0136 28.2811 29.0062C28.6187 26.6847 29.5619 26.4498 30.0934 26.3842C30.6255 26.4498 31.5686 26.6837 31.9053 29.003C33.627 41.0136 36.2364 41.0136 37.0945 41.0136C40.0355 41.0136 40.961 37.6698 41.4028 36.0719C41.9981 33.7773 42.4068 31.438 42.6245 29.0769C42.9031 27.0595 43.5732 25.1155 44.5973 23.3553C44.9498 22.7107 45.3367 22.0913 45.7223 21.4727C46.4859 20.3199 47.1467 19.1023 47.6978 17.8341C49.5669 13.1984 50.0673 6.85125 45.8692 2.94474C41.8251 -0.834335 34.6655 -0.966412 30.0934 2.49596C25.5228 -0.967342 18.3618 -0.833405 14.3191 2.94102C10.1219 6.85218 10.6214 13.1993 12.4905 17.835C13.0406 19.1033 13.7015 20.3208 14.4646 21.4737ZM15.6822 4.40271C19.1557 1.15891 25.7079 1.21611 29.4303 4.5199C29.44 4.52967 29.454 4.53153 29.4642 4.5399C29.474 4.5478 29.48 4.56269 29.4912 4.57059C29.534 4.60268 33.7451 7.81625 34.7924 11.2828C34.9194 11.7046 35.3082 11.9934 35.7486 11.9934C35.8462 11.993 35.9434 11.979 36.0374 11.9516C36.2913 11.8748 36.5043 11.7004 36.6294 11.4665C36.7545 11.233 36.7819 10.9591 36.7047 10.7052C35.8086 7.73719 33.1614 5.09332 31.6923 3.80417C35.497 1.23518 41.3037 1.41516 44.5033 4.40364C47.962 7.62464 47.462 13.0677 45.8422 17.0868C45.3335 18.248 44.7242 19.3623 44.0215 20.4175C43.622 21.0667 43.2133 21.7164 42.8417 22.3949C41.693 24.3812 40.9442 26.5726 40.6373 28.8463C40.4289 31.1018 40.0406 33.3369 39.476 35.5306C38.9873 37.2931 38.4045 39.0148 37.0945 39.0148C36.5508 39.0148 34.9882 36.423 33.8841 28.7226C33.4981 26.0685 32.2611 24.6105 30.2074 24.3887C30.1693 24.3896 30.1316 24.3933 30.0934 24.3984C30.0558 24.3928 30.0181 24.3891 29.9795 24.3887C27.9263 24.6105 26.6892 26.0685 26.3023 28.7244C25.1973 36.423 23.6361 39.0148 23.0929 39.0148C21.7828 39.0148 21.1941 37.2931 20.7062 35.5227C20.1426 33.3322 19.7552 31.1004 19.5473 28.8481C19.2403 26.574 18.4916 24.3817 17.3429 22.3949C16.9708 21.7174 16.5662 21.0667 16.1626 20.4175C15.4599 19.3628 14.8511 18.2485 14.3428 17.0877C12.7221 13.0677 12.2226 7.62464 15.6822 4.40271Z" fill="#00C9EA"/>
<path d="M16.3035 12.9929C16.3756 12.9929 16.4472 12.985 16.5175 12.9697C17.0565 12.8525 17.3987 12.3209 17.282 11.7815C16.8221 9.71567 17.7638 7.59174 19.6031 6.54535C20.0807 6.28074 20.2575 5.6822 20.0003 5.2004C19.7436 4.71906 19.1474 4.53304 18.6618 4.78278C16.0282 6.24446 14.6716 9.26549 15.3283 12.2051C15.4278 12.6646 15.8338 12.992 16.3035 12.9929Z" fill="#00C9EA"/>
<path d="M59.3988 29.0135C58.9709 28.6344 58.4017 28.4558 57.8339 28.5228L52.9275 29.1162C48.1769 29.5864 44.1802 32.8776 42.8078 37.4492L41.0689 44.0744C39.9988 48.1567 35.9895 51.0066 31.3129 51.0066H28.8746C24.2007 51.0066 20.1886 48.1567 19.1185 44.0777L17.3797 37.4524C16.0063 32.8814 12.0096 29.592 7.25996 29.1223L2.35357 28.5228C1.78527 28.454 1.2151 28.6321 0.787249 29.0121C0.358929 29.392 0.114307 29.9371 0.115237 30.5095V57.0022C0.115237 58.6582 1.4574 60.0004 3.11302 60.0004H57.0744C58.73 60.0004 60.0722 58.6582 60.0722 57.0022V30.5095C60.0722 29.9371 59.8271 29.3925 59.3988 29.0135ZM58.0738 57.0022C58.0738 57.5542 57.6265 58.0016 57.0744 58.0016H3.11302C2.56099 58.0016 2.1136 57.5542 2.1136 57.0022V30.5095L7.01999 31.1039C10.9586 31.4722 14.2861 34.1793 15.4483 37.9598L17.1857 44.5851C18.5539 49.2384 22.659 52.5594 27.4957 52.9254C27.6194 52.978 27.7528 53.005 27.8872 53.0054H32.3039C32.4388 53.005 32.5718 52.978 32.696 52.9254C37.5317 52.5585 41.6358 49.238 43.0036 44.5851L44.741 37.9598C45.9037 34.1793 49.2307 31.4722 53.1693 31.1039L58.0757 30.5044L58.0738 57.0022Z" fill="#00C9EA"/>
</g>
<defs>
<clipPath id="clip0">
<rect width="60" height="60" fill="white"/>
</clipPath>
</defs>
</svg>
