<svg width="50" height="50" viewBox="0 0 50 50" fill="none" xmlns="http://www.w3.org/2000/svg">
<g clip-path="url(#clip0)">
<path d="M49.5228 41.8375L28.0483 4.64277C27.4121 3.54072 26.2726 2.88281 25 2.88281C23.7274 2.88281 22.5879 3.54072 21.9517 4.64277L0.477246 41.8375C-0.159082 42.9395 -0.159082 44.2555 0.477246 45.3574C1.11348 46.4595 2.25303 47.1174 3.52559 47.1174H46.4744C47.747 47.1174 48.8865 46.4595 49.5228 45.3574C50.1591 44.2555 50.1591 42.9395 49.5228 41.8375ZM46.9825 43.8908C46.9193 44.0004 46.769 44.1842 46.4745 44.1842H3.52559C3.23086 44.1842 3.08066 44.0005 3.01758 43.8908C2.95439 43.7813 2.87021 43.5594 3.01758 43.3042L24.4919 6.10937C24.6393 5.8542 24.8734 5.81602 24.9999 5.81602C25.1265 5.81602 25.3606 5.8541 25.5079 6.10937L46.9824 43.3042C47.1299 43.5594 47.0457 43.7813 46.9825 43.8908Z" fill="#00779C"/>
<path d="M26.4672 16.2202H23.5339V31.8645H26.4672V16.2202Z" fill="#00779C"/>
<path d="M25.0005 38.709C26.0805 38.709 26.9561 37.8334 26.9561 36.7534C26.9561 35.6734 26.0805 34.7979 25.0005 34.7979C23.9205 34.7979 23.0449 35.6734 23.0449 36.7534C23.0449 37.8334 23.9205 38.709 25.0005 38.709Z" fill="#00779C"/>
</g>
<defs>
<clipPath id="clip0">
<rect width="50" height="50" fill="white"/>
</clipPath>
</defs>
</svg>
